<svg width="390" height="170" viewBox="0 0 390 170" fill="none" xmlns="http://www.w3.org/2000/svg">
<path d="M73.6133 100.483C38.8311 108.106 1 145.43 1 145.43V170.001H390V5.79492C390 5.79492 371.428 100.024 321.536 100.483C295.083 100.726 263.822 67.3296 237.512 65.724C197.835 63.3027 205.79 102.343 166.973 107.674C132.21 112.449 107.022 93.1605 73.6133 100.483Z" fill="url(#paint0_linear_4002_3790)"/>
<path d="M1 146.028C1 146.028 33.9585 108.55 64.2608 100.895C93.3662 93.5423 115.311 112.911 145.596 108.116C179.413 102.763 172.482 62.9588 207.049 65.3902C229.97 67.0024 257.206 101.14 280.251 100.895C323.717 100.434 333.571 1 333.571 1" stroke="#8EDFEB"/>
<defs>
<linearGradient id="paint0_linear_4002_3790" x1="195.5" y1="38.1566" x2="195.5" y2="186.181" gradientUnits="userSpaceOnUse">
<stop stop-color="#6D98C6"/>
<stop offset="1" stop-color="white"/>
</linearGradient>
</defs>
</svg>
